<mxfile host="Electron" agent="Mozilla/5.0 (Windows NT 10.0; Win64; x64) AppleWebKit/537.36 (KHTML, like Gecko) draw.io/24.7.17 Chrome/128.0.6613.36 Electron/32.0.1 Safari/537.36" version="24.7.17">
  <diagram name="Page-1" id="eo9_WLX4i6MRtV-79SUJ">
    <mxGraphModel dx="1877" dy="989" grid="1" gridSize="10" guides="1" tooltips="1" connect="1" arrows="1" fold="1" page="1" pageScale="1" pageWidth="850" pageHeight="1100" math="0" shadow="0">
      <root>
        <mxCell id="0" />
        <mxCell id="1" parent="0" />
        <mxCell id="xD0bL81C4ZWrOrEym1o9-1" value="Bus" style="swimlane;fontStyle=0;childLayout=stackLayout;horizontal=1;startSize=30;horizontalStack=0;resizeParent=1;resizeParentMax=0;resizeLast=0;collapsible=1;marginBottom=0;whiteSpace=wrap;html=1;" vertex="1" parent="1">
          <mxGeometry x="-535" y="420" width="360" height="330" as="geometry" />
        </mxCell>
        <mxCell id="xD0bL81C4ZWrOrEym1o9-2" value="!Arrival" style="text;strokeColor=none;fillColor=none;align=right;verticalAlign=middle;spacingLeft=4;spacingRight=4;overflow=hidden;points=[[0,0.5],[1,0.5]];portConstraint=eastwest;rotatable=0;whiteSpace=wrap;html=1;" vertex="1" parent="xD0bL81C4ZWrOrEym1o9-1">
          <mxGeometry y="30" width="360" height="30" as="geometry" />
        </mxCell>
        <mxCell id="xD0bL81C4ZWrOrEym1o9-3" value="&lt;div align=&quot;right&quot;&gt;!Boarding&lt;br&gt;&lt;/div&gt;" style="text;strokeColor=none;fillColor=none;align=right;verticalAlign=middle;spacingLeft=4;spacingRight=4;overflow=hidden;points=[[0,0.5],[1,0.5]];portConstraint=eastwest;rotatable=0;whiteSpace=wrap;html=1;" vertex="1" parent="xD0bL81C4ZWrOrEym1o9-1">
          <mxGeometry y="60" width="360" height="30" as="geometry" />
        </mxCell>
        <mxCell id="xD0bL81C4ZWrOrEym1o9-4" value="&lt;div align=&quot;right&quot;&gt;!Departed&lt;br&gt;&lt;/div&gt;" style="text;strokeColor=none;fillColor=none;align=right;verticalAlign=middle;spacingLeft=4;spacingRight=4;overflow=hidden;points=[[0,0.5],[1,0.5]];portConstraint=eastwest;rotatable=0;whiteSpace=wrap;html=1;" vertex="1" parent="xD0bL81C4ZWrOrEym1o9-1">
          <mxGeometry y="90" width="360" height="30" as="geometry" />
        </mxCell>
        <mxCell id="xD0bL81C4ZWrOrEym1o9-5" value="" style="line;strokeWidth=1;fillColor=none;align=left;verticalAlign=middle;spacingTop=-1;spacingLeft=3;spacingRight=3;rotatable=0;labelPosition=right;points=[];portConstraint=eastwest;strokeColor=inherit;" vertex="1" parent="xD0bL81C4ZWrOrEym1o9-1">
          <mxGeometry y="120" width="360" height="8" as="geometry" />
        </mxCell>
        <mxCell id="xD0bL81C4ZWrOrEym1o9-59" value="" style="text;strokeColor=none;fillColor=none;align=left;verticalAlign=middle;spacingTop=-1;spacingLeft=4;spacingRight=4;rotatable=0;labelPosition=right;points=[];portConstraint=eastwest;" vertex="1" parent="xD0bL81C4ZWrOrEym1o9-1">
          <mxGeometry y="128" width="360" height="202" as="geometry" />
        </mxCell>
        <mxCell id="xD0bL81C4ZWrOrEym1o9-7" value="Bus Stop" style="swimlane;fontStyle=0;childLayout=stackLayout;horizontal=1;startSize=30;horizontalStack=0;resizeParent=1;resizeParentMax=0;resizeLast=0;collapsible=1;marginBottom=0;whiteSpace=wrap;html=1;" vertex="1" parent="1">
          <mxGeometry x="-30" y="420" width="360" height="330" as="geometry" />
        </mxCell>
        <mxCell id="xD0bL81C4ZWrOrEym1o9-8" value="?BusArrived" style="text;strokeColor=none;fillColor=none;align=left;verticalAlign=middle;spacingLeft=4;spacingRight=4;overflow=hidden;points=[[0,0.5],[1,0.5]];portConstraint=eastwest;rotatable=0;whiteSpace=wrap;html=1;" vertex="1" parent="xD0bL81C4ZWrOrEym1o9-7">
          <mxGeometry y="30" width="360" height="30" as="geometry" />
        </mxCell>
        <mxCell id="xD0bL81C4ZWrOrEym1o9-9" value="&lt;div&gt;?StartBoarding&lt;/div&gt;" style="text;strokeColor=none;fillColor=none;align=left;verticalAlign=middle;spacingLeft=4;spacingRight=4;overflow=hidden;points=[[0,0.5],[1,0.5]];portConstraint=eastwest;rotatable=0;whiteSpace=wrap;html=1;" vertex="1" parent="xD0bL81C4ZWrOrEym1o9-7">
          <mxGeometry y="60" width="360" height="30" as="geometry" />
        </mxCell>
        <mxCell id="xD0bL81C4ZWrOrEym1o9-10" value="&lt;div&gt;?FinishBoarding&lt;/div&gt;" style="text;strokeColor=none;fillColor=none;align=left;verticalAlign=middle;spacingLeft=4;spacingRight=4;overflow=hidden;points=[[0,0.5],[1,0.5]];portConstraint=eastwest;rotatable=0;whiteSpace=wrap;html=1;" vertex="1" parent="xD0bL81C4ZWrOrEym1o9-7">
          <mxGeometry y="90" width="360" height="30" as="geometry" />
        </mxCell>
        <mxCell id="xD0bL81C4ZWrOrEym1o9-11" value="" style="line;strokeWidth=1;fillColor=none;align=left;verticalAlign=middle;spacingTop=-1;spacingLeft=3;spacingRight=3;rotatable=0;labelPosition=right;points=[];portConstraint=eastwest;strokeColor=inherit;" vertex="1" parent="xD0bL81C4ZWrOrEym1o9-7">
          <mxGeometry y="120" width="360" height="8" as="geometry" />
        </mxCell>
        <mxCell id="xD0bL81C4ZWrOrEym1o9-12" value="" style="text;strokeColor=none;fillColor=none;align=left;verticalAlign=middle;spacingTop=-1;spacingLeft=4;spacingRight=4;rotatable=0;labelPosition=right;points=[];portConstraint=eastwest;" vertex="1" parent="xD0bL81C4ZWrOrEym1o9-7">
          <mxGeometry y="128" width="360" height="202" as="geometry" />
        </mxCell>
        <mxCell id="xD0bL81C4ZWrOrEym1o9-13" style="edgeStyle=orthogonalEdgeStyle;rounded=0;orthogonalLoop=1;jettySize=auto;html=1;" edge="1" parent="1" source="xD0bL81C4ZWrOrEym1o9-3" target="xD0bL81C4ZWrOrEym1o9-9">
          <mxGeometry relative="1" as="geometry" />
        </mxCell>
        <mxCell id="xD0bL81C4ZWrOrEym1o9-14" style="edgeStyle=orthogonalEdgeStyle;rounded=0;orthogonalLoop=1;jettySize=auto;html=1;" edge="1" parent="1" source="xD0bL81C4ZWrOrEym1o9-4" target="xD0bL81C4ZWrOrEym1o9-10">
          <mxGeometry relative="1" as="geometry" />
        </mxCell>
        <mxCell id="xD0bL81C4ZWrOrEym1o9-27" value="Idle" style="ellipse;whiteSpace=wrap;html=1;" vertex="1" parent="1">
          <mxGeometry x="100" y="560" width="100" height="70" as="geometry" />
        </mxCell>
        <mxCell id="xD0bL81C4ZWrOrEym1o9-28" style="edgeStyle=orthogonalEdgeStyle;rounded=0;orthogonalLoop=1;jettySize=auto;html=1;" edge="1" parent="1" source="xD0bL81C4ZWrOrEym1o9-29" target="xD0bL81C4ZWrOrEym1o9-31">
          <mxGeometry relative="1" as="geometry" />
        </mxCell>
        <mxCell id="xD0bL81C4ZWrOrEym1o9-29" value="Bus Arrived" style="ellipse;whiteSpace=wrap;html=1;" vertex="1" parent="1">
          <mxGeometry x="210" y="660" width="100" height="70" as="geometry" />
        </mxCell>
        <mxCell id="xD0bL81C4ZWrOrEym1o9-30" style="rounded=0;orthogonalLoop=1;jettySize=auto;html=1;" edge="1" parent="1" source="xD0bL81C4ZWrOrEym1o9-31" target="xD0bL81C4ZWrOrEym1o9-27">
          <mxGeometry relative="1" as="geometry" />
        </mxCell>
        <mxCell id="xD0bL81C4ZWrOrEym1o9-31" value="&lt;div&gt;Bus Boarding&lt;/div&gt;" style="ellipse;whiteSpace=wrap;html=1;" vertex="1" parent="1">
          <mxGeometry x="-10" y="660" width="100" height="70" as="geometry" />
        </mxCell>
        <mxCell id="xD0bL81C4ZWrOrEym1o9-32" value="" style="endArrow=classic;html=1;rounded=0;endFill=1;" edge="1" parent="1" source="xD0bL81C4ZWrOrEym1o9-27" target="xD0bL81C4ZWrOrEym1o9-29">
          <mxGeometry width="50" height="50" relative="1" as="geometry">
            <mxPoint x="125" y="700" as="sourcePoint" />
            <mxPoint x="175" y="650" as="targetPoint" />
          </mxGeometry>
        </mxCell>
        <mxCell id="xD0bL81C4ZWrOrEym1o9-33" value="?BusArrivbed" style="text;html=1;align=center;verticalAlign=middle;resizable=0;points=[];autosize=1;strokeColor=none;fillColor=none;" vertex="1" parent="1">
          <mxGeometry x="200" y="620" width="100" height="30" as="geometry" />
        </mxCell>
        <mxCell id="xD0bL81C4ZWrOrEym1o9-34" value="?StartBoarding" style="text;html=1;align=center;verticalAlign=middle;resizable=0;points=[];autosize=1;strokeColor=none;fillColor=none;" vertex="1" parent="1">
          <mxGeometry x="105" y="700" width="100" height="30" as="geometry" />
        </mxCell>
        <mxCell id="xD0bL81C4ZWrOrEym1o9-35" value="&lt;div&gt;?FinishBoarding&lt;/div&gt;" style="text;html=1;align=center;verticalAlign=middle;resizable=0;points=[];autosize=1;strokeColor=none;fillColor=none;" vertex="1" parent="1">
          <mxGeometry x="-20" y="620" width="110" height="30" as="geometry" />
        </mxCell>
        <mxCell id="xD0bL81C4ZWrOrEym1o9-38" style="rounded=0;orthogonalLoop=1;jettySize=auto;html=1;" edge="1" parent="1" source="xD0bL81C4ZWrOrEym1o9-39" target="xD0bL81C4ZWrOrEym1o9-42">
          <mxGeometry relative="1" as="geometry" />
        </mxCell>
        <mxCell id="xD0bL81C4ZWrOrEym1o9-39" value="Arrived" style="ellipse;whiteSpace=wrap;html=1;" vertex="1" parent="1">
          <mxGeometry x="-295" y="660" width="100" height="70" as="geometry" />
        </mxCell>
        <mxCell id="xD0bL81C4ZWrOrEym1o9-40" style="rounded=0;orthogonalLoop=1;jettySize=auto;html=1;" edge="1" parent="1" source="xD0bL81C4ZWrOrEym1o9-41" target="xD0bL81C4ZWrOrEym1o9-39">
          <mxGeometry relative="1" as="geometry" />
        </mxCell>
        <mxCell id="xD0bL81C4ZWrOrEym1o9-41" value="Traveling" style="ellipse;whiteSpace=wrap;html=1;" vertex="1" parent="1">
          <mxGeometry x="-405" y="560" width="100" height="70" as="geometry" />
        </mxCell>
        <mxCell id="xD0bL81C4ZWrOrEym1o9-42" value="Boarding" style="ellipse;whiteSpace=wrap;html=1;" vertex="1" parent="1">
          <mxGeometry x="-515" y="660" width="100" height="70" as="geometry" />
        </mxCell>
        <mxCell id="xD0bL81C4ZWrOrEym1o9-44" value="!Arrival" style="text;html=1;align=center;verticalAlign=middle;resizable=0;points=[];autosize=1;strokeColor=none;fillColor=none;" vertex="1" parent="1">
          <mxGeometry x="-295" y="620" width="60" height="30" as="geometry" />
        </mxCell>
        <mxCell id="xD0bL81C4ZWrOrEym1o9-45" value="" style="endArrow=classic;html=1;rounded=0;endFill=1;" edge="1" parent="1" source="xD0bL81C4ZWrOrEym1o9-42" target="xD0bL81C4ZWrOrEym1o9-41">
          <mxGeometry width="50" height="50" relative="1" as="geometry">
            <mxPoint x="-415" y="915" as="sourcePoint" />
            <mxPoint x="-385" y="930" as="targetPoint" />
          </mxGeometry>
        </mxCell>
        <mxCell id="xD0bL81C4ZWrOrEym1o9-46" value="!Departure" style="text;html=1;align=center;verticalAlign=middle;resizable=0;points=[];autosize=1;strokeColor=none;fillColor=none;" vertex="1" parent="1">
          <mxGeometry x="-495" y="620" width="80" height="30" as="geometry" />
        </mxCell>
        <mxCell id="xD0bL81C4ZWrOrEym1o9-49" value="!Boarding" style="text;html=1;align=center;verticalAlign=middle;resizable=0;points=[];autosize=1;strokeColor=none;fillColor=none;" vertex="1" parent="1">
          <mxGeometry x="-385" y="700" width="70" height="30" as="geometry" />
        </mxCell>
        <mxCell id="xD0bL81C4ZWrOrEym1o9-51" style="edgeStyle=orthogonalEdgeStyle;rounded=0;orthogonalLoop=1;jettySize=auto;html=1;" edge="1" parent="1" source="xD0bL81C4ZWrOrEym1o9-2" target="xD0bL81C4ZWrOrEym1o9-8">
          <mxGeometry relative="1" as="geometry" />
        </mxCell>
      </root>
    </mxGraphModel>
  </diagram>
</mxfile>
